<svg width="448" height="500" viewBox="0 0 448 500" fill="none" xmlns="http://www.w3.org/2000/svg">
<path d="M343.534 196.098C344.248 196.411 344.808 196.994 345.091 197.72C345.374 198.446 345.358 199.254 345.045 199.968L343.13 204.337C342.932 204.788 342.563 205.142 342.105 205.321C341.646 205.5 341.135 205.49 340.684 205.292L338.704 204.425C338.253 204.227 337.899 203.858 337.72 203.399C337.541 202.941 337.551 202.43 337.749 201.979L339.664 197.609C339.819 197.256 340.042 196.936 340.321 196.669C340.599 196.402 340.927 196.192 341.286 196.052C341.646 195.912 342.029 195.844 342.415 195.852C342.8 195.859 343.181 195.943 343.534 196.098Z" fill="#F3C4AF"/>
<path d="M344.603 196.6L341.083 195.057C340.207 194.673 339.186 195.072 338.802 195.948L337.659 198.555C337.275 199.431 337.674 200.452 338.55 200.836L342.07 202.38C342.946 202.763 343.968 202.365 344.352 201.489L345.494 198.882C345.878 198.006 345.479 196.984 344.603 196.6Z" fill="#F3C4AF"/>
<path d="M296.935 165.302L314.727 160.784C317.689 160.031 320.828 160.487 323.454 162.049C326.08 163.611 327.977 166.153 328.729 169.114L331.961 181.838L291.829 192.03L288.597 179.306C288.225 177.839 288.145 176.313 288.362 174.815C288.58 173.317 289.09 171.877 289.864 170.577C290.639 169.276 291.662 168.141 292.875 167.236C294.088 166.331 295.468 165.674 296.935 165.302Z" fill="#E07B4F"/>
<path d="M296.935 165.302L314.727 160.784C317.689 160.031 320.828 160.487 323.454 162.049C326.08 163.611 327.977 166.153 328.729 169.114L331.961 181.838L291.829 192.03L288.597 179.306C288.225 177.839 288.145 176.313 288.362 174.815C288.58 173.317 289.09 171.877 289.864 170.577C290.639 169.276 291.662 168.141 292.875 167.236C294.088 166.331 295.468 165.674 296.935 165.302Z" fill="#E07B4F"/>
<path d="M310.927 203.802C322.358 203.802 331.625 194.535 331.625 183.104C331.625 171.673 322.358 162.406 310.927 162.406C299.496 162.406 290.229 171.673 290.229 183.104C290.229 194.535 299.496 203.802 310.927 203.802Z" fill="#E07B4F"/>
<path d="M329.094 186.279C331.145 186.279 332.807 184.616 332.807 182.565C332.807 180.514 331.145 178.852 329.094 178.852C327.043 178.852 325.38 180.514 325.38 182.565C325.38 184.616 327.043 186.279 329.094 186.279Z" fill="#F3C4AF"/>
<path d="M294.62 195.034C296.671 195.034 298.333 193.371 298.333 191.32C298.333 189.269 296.671 187.607 294.62 187.607C292.569 187.607 290.906 189.269 290.906 191.32C290.906 193.371 292.569 195.034 294.62 195.034Z" fill="#F3C4AF"/>
<path d="M306.465 165.912C311.049 164.748 315.907 165.453 319.971 167.872C324.036 170.29 326.973 174.224 328.137 178.807L335.053 206.042L300.474 214.824L293.557 187.589C292.981 185.318 292.857 182.956 293.194 180.637C293.53 178.319 294.321 176.089 295.519 174.076C296.718 172.063 298.302 170.306 300.18 168.905C302.058 167.504 304.194 166.487 306.465 165.912Z" fill="#F3C4AF"/>
<path d="M333.585 200.256L299.019 209.035L301.957 220.603L336.523 211.824L333.585 200.256Z" fill="#438FAA"/>
<path d="M329.961 201.177L325.753 202.246L328.691 213.814L332.898 212.745L329.961 201.177Z" fill="#3F3F3F"/>
<path d="M321.528 203.317L317.321 204.386L320.258 215.954L324.466 214.885L321.528 203.317Z" fill="#3F3F3F"/>
<path d="M300.49 214.819L335.069 206.037L339.308 222.728C339.605 223.9 339.425 225.142 338.807 226.18C338.189 227.219 337.184 227.97 336.013 228.267L310.267 234.806C309.096 235.103 307.854 234.923 306.816 234.305C305.777 233.687 305.026 232.682 304.729 231.51L300.49 214.819Z" fill="#3F3F3F"/>
<path d="M306.525 194.424C309.73 193.61 311.566 189.949 310.626 186.247C309.685 182.544 306.325 180.202 303.12 181.016C299.915 181.83 298.08 185.492 299.02 189.194C299.96 192.896 303.321 195.238 306.525 194.424Z" fill="white"/>
<path d="M307.679 191.629C309.76 191.1 310.952 188.722 310.342 186.317C309.731 183.913 307.549 182.392 305.468 182.921C303.386 183.449 302.194 185.827 302.805 188.232C303.416 190.636 305.598 192.157 307.679 191.629Z" fill="#182844"/>
<path d="M307.669 184.736C307.899 184.415 307.716 183.892 307.262 183.566C306.808 183.241 306.253 183.237 306.024 183.557C305.795 183.878 305.977 184.401 306.431 184.727C306.886 185.052 307.44 185.056 307.669 184.736Z" fill="white"/>
<path d="M321.982 190.501C325.187 189.687 327.023 186.026 326.082 182.323C325.142 178.621 321.782 176.279 318.577 177.093C315.372 177.907 313.537 181.568 314.477 185.271C315.417 188.973 318.777 191.315 321.982 190.501Z" fill="white"/>
<path d="M319.632 188.592C321.713 188.064 322.905 185.686 322.294 183.281C321.684 180.876 319.501 179.356 317.42 179.884C315.339 180.413 314.147 182.791 314.758 185.195C315.368 187.6 317.55 189.121 319.632 188.592Z" fill="#182844"/>
<path d="M319.591 181.735C319.82 181.415 319.638 180.891 319.183 180.566C318.729 180.241 318.175 180.237 317.945 180.557C317.716 180.877 317.898 181.401 318.353 181.726C318.807 182.051 319.361 182.056 319.591 181.735Z" fill="white"/>
<path d="M314.49 192.878C315.443 192.635 316.594 191.771 317.76 192.464C318.927 193.156 318.513 196.125 315.568 196.872C312.622 197.62 310.401 195.286 311.318 194.029C312.234 192.771 313.336 193.172 314.49 192.878Z" fill="#F4987F"/>
<path d="M313.294 196.875C313.294 196.875 314.396 194.161 318.078 194.964C318.078 194.951 316.844 197.607 313.294 196.875Z" fill="#E86275"/>
<path d="M313.437 175.021C313.694 174.821 313.967 174.642 314.253 174.487C314.985 174.082 315.775 173.792 316.596 173.628C317.583 173.426 318.596 173.391 319.594 173.526C320.59 173.656 321.557 173.949 322.458 174.393C322.945 174.634 323.408 174.92 323.841 175.247C324.076 175.426 324.3 175.617 324.513 175.82C324.75 176.043 324.969 176.284 325.167 176.542L325.133 176.802L323.656 176.677L322.182 176.526C321.201 176.419 320.224 176.292 319.242 176.177C318.26 176.063 317.286 175.917 316.31 175.766L314.849 175.539L313.388 175.279L313.437 175.021ZM296.667 183.781C296.718 183.46 296.795 183.143 296.896 182.833C296.986 182.553 297.091 182.277 297.211 182.008C297.435 181.514 297.706 181.042 298.018 180.599C298.6 179.776 299.315 179.057 300.133 178.469C300.95 177.879 301.857 177.428 302.82 177.133C303.622 176.887 304.456 176.763 305.294 176.766C305.619 176.766 305.943 176.792 306.263 176.844L306.419 177.06L305.258 177.982L304.081 178.878C303.299 179.474 302.492 180.052 301.701 180.638C300.909 181.224 300.096 181.786 299.284 182.349L298.062 183.185L296.823 184L296.667 183.781Z" fill="#F4987F"/>
<path d="M321.81 161.242C321.55 161.135 321.271 161.039 320.997 160.953H320.964L320.602 160.849L320.474 160.815L320.281 160.766C318.696 160.381 317.046 160.339 315.443 160.643H315.393C315.174 160.685 314.958 160.732 314.74 160.786L296.948 165.305C296.734 165.359 296.526 165.422 296.318 165.487L296.263 165.503C294.707 166.001 293.276 166.825 292.065 167.922C292.031 167.951 292 167.984 291.969 168.013L291.776 168.195L291.617 168.352L291.448 168.526L291.286 168.701C291.234 168.755 291.185 168.813 291.135 168.87L290.974 169.055L290.945 169.089C289.906 170.335 289.14 171.787 288.698 173.349C288.667 173.453 288.646 173.557 288.62 173.661C288.56 173.893 288.51 174.128 288.466 174.362C288.438 174.508 288.409 174.651 288.388 174.797V174.831C288.172 176.322 288.252 177.842 288.625 179.302L289.276 181.862L290.12 181.646L290.833 181.466L293.177 180.867C293.698 177.482 295.315 174.242 298.471 173.44C299.629 173.147 300.848 173.213 301.966 173.63C304.084 174.521 306.435 174.698 308.663 174.135C310.89 173.571 312.873 172.297 314.313 170.505C315.098 169.608 316.138 168.972 317.294 168.682C320.451 167.88 323.284 169.984 325.294 172.732L329.388 171.69L328.737 169.13C328.291 167.36 327.43 165.722 326.226 164.35C325.021 162.979 323.508 161.913 321.81 161.242Z" fill="#E07B4F"/>
<path d="M255.477 280.841C282.193 280.841 303.852 278.615 303.852 275.87C303.852 273.124 282.193 270.898 255.477 270.898C228.76 270.898 207.102 273.124 207.102 275.87C207.102 278.615 228.76 280.841 255.477 280.841Z" fill="#E5F4F4"/>
<path d="M321.893 356.328C357.472 356.328 386.315 354.102 386.315 351.357C386.315 348.611 357.472 346.385 321.893 346.385C286.314 346.385 257.471 348.611 257.471 351.357C257.471 354.102 286.314 356.328 321.893 356.328Z" fill="#E5F4F4"/>
<path d="M254.227 175.643L196.362 275.87H312.091L254.227 175.643Z" fill="url(#paint0_linear_8_117)"/>
<path d="M208.406 355.784C227.239 355.784 242.505 353.504 242.505 350.693C242.505 347.881 227.239 345.602 208.406 345.602C189.574 345.602 174.307 347.881 174.307 350.693C174.307 353.504 189.574 355.784 208.406 355.784Z" fill="#E5F4F4"/>
<path d="M170.591 329.229C197.308 329.229 218.966 327.003 218.966 324.258C218.966 321.512 197.308 319.286 170.591 319.286C143.874 319.286 122.216 321.512 122.216 324.258C122.216 327.003 143.874 329.229 170.591 329.229Z" fill="#E5F4F4"/>
<path d="M170.591 323.779C202.02 323.779 227.497 298.301 227.497 266.872C227.497 235.444 202.02 209.966 170.591 209.966C139.163 209.966 113.685 235.444 113.685 266.872C113.685 298.301 139.163 323.779 170.591 323.779Z" fill="url(#paint1_linear_8_117)"/>
<path d="M375.398 244.344H268.385V351.357H375.398V244.344Z" fill="url(#paint2_linear_8_117)"/>
<path d="M345.189 225.709L342.43 231.113C341.83 232.289 342.296 233.729 343.472 234.33L343.474 234.331C344.65 234.931 346.09 234.465 346.691 233.289L349.45 227.885C350.05 226.709 349.584 225.269 348.408 224.669L348.406 224.667C347.23 224.067 345.79 224.533 345.189 225.709Z" fill="#3F3F3F"/>
<path d="M306.667 227.119C306.139 227.694 305.404 228.035 304.625 228.068C303.845 228.102 303.084 227.824 302.509 227.296L298.984 224.059C298.62 223.725 298.404 223.261 298.383 222.768C298.362 222.275 298.538 221.795 298.872 221.431L300.335 219.837C300.669 219.474 301.133 219.258 301.626 219.237C302.118 219.216 302.599 219.392 302.962 219.725L306.49 222.965C307.064 223.492 307.405 224.226 307.438 225.005C307.471 225.784 307.194 226.544 306.667 227.119Z" fill="#F3C4AF"/>
<path d="M305.845 227.972L308.448 225.137C309.096 224.432 309.05 223.335 308.344 222.687L306.244 220.758C305.538 220.11 304.441 220.157 303.793 220.863L301.19 223.698C300.542 224.403 300.589 225.5 301.294 226.148L303.395 228.077C304.1 228.725 305.197 228.678 305.845 227.972Z" fill="#F3C4AF"/>
<path d="M300.427 238.633L301.987 241.651H305.669" stroke="#3F3F3F" stroke-width="3.46125" stroke-linecap="round" stroke-linejoin="round"/>
<path d="M186.841 169.039H152.656C149.278 169.039 146.539 171.777 146.539 175.155C146.539 178.533 149.278 181.271 152.656 181.271H186.841C190.22 181.271 192.958 178.533 192.958 175.155C192.958 171.777 190.22 169.039 186.841 169.039Z" fill="#182844"/>
<path d="M169.747 184.354C180.199 184.354 188.672 175.881 188.672 165.43C188.672 154.978 180.199 146.505 169.747 146.505C159.296 146.505 150.823 154.978 150.823 165.43C150.823 175.881 159.296 184.354 169.747 184.354Z" fill="#182844"/>
<path d="M185.969 172.435C187.844 172.435 189.365 170.914 189.365 169.039C189.365 167.164 187.844 165.643 185.969 165.643C184.093 165.643 182.573 167.164 182.573 169.039C182.573 170.914 184.093 172.435 185.969 172.435Z" fill="#FFD5A7"/>
<path d="M153.448 172.435C155.323 172.435 156.844 170.914 156.844 169.039C156.844 167.164 155.323 165.643 153.448 165.643C151.572 165.643 150.052 167.164 150.052 169.039C150.052 170.914 151.572 172.435 153.448 172.435Z" fill="#FFD5A7"/>
<path d="M169.664 149.19C173.988 149.19 178.136 150.908 181.193 153.966C184.251 157.023 185.969 161.171 185.969 165.495V191.188H153.357V165.495C153.357 163.353 153.779 161.233 154.598 159.255C155.418 157.276 156.619 155.479 158.133 153.965C159.648 152.451 161.445 151.25 163.424 150.43C165.402 149.611 167.523 149.19 169.664 149.19Z" fill="#FFD5A7"/>
<path d="M149.55 151.089L147.847 152.101C147.458 152.332 146.994 152.399 146.557 152.287C146.119 152.176 145.743 151.895 145.512 151.507L143.275 147.741C142.91 147.127 142.804 146.394 142.98 145.702C143.156 145.01 143.6 144.416 144.214 144.051C144.828 143.686 145.562 143.58 146.254 143.756C146.946 143.932 147.54 144.376 147.905 144.99L150.142 148.756C150.373 149.144 150.44 149.608 150.329 150.046C150.217 150.484 149.936 150.859 149.548 151.09L149.55 151.089Z" fill="#FFD5A7"/>
<path d="M149.974 150.067L148.278 149.887C148.214 149.881 148.156 149.849 148.115 149.799C148.075 149.749 148.056 149.685 148.063 149.621L148.384 146.589C148.414 146.299 148.558 146.034 148.785 145.851C149.011 145.669 149.3 145.583 149.589 145.614C149.878 145.644 150.144 145.788 150.326 146.015C150.509 146.241 150.595 146.53 150.564 146.819L150.245 149.834C150.238 149.898 150.207 149.956 150.157 149.997C150.107 150.037 150.043 150.056 149.979 150.049L149.974 150.067Z" fill="#FFD5A7"/>
<path d="M195.21 144.055C195.824 144.42 196.267 145.014 196.444 145.706C196.62 146.398 196.514 147.132 196.149 147.745L193.905 151.522C193.674 151.911 193.298 152.191 192.861 152.303C192.423 152.414 191.959 152.347 191.571 152.116L189.867 151.104C189.479 150.873 189.198 150.498 189.086 150.06C188.975 149.622 189.042 149.158 189.273 148.77L191.517 144.993C191.698 144.689 191.937 144.423 192.22 144.211C192.504 144 192.826 143.846 193.169 143.759C193.512 143.672 193.869 143.653 194.219 143.704C194.569 143.755 194.906 143.874 195.21 144.055Z" fill="#FFD5A7"/>
<path d="M189.821 145.6C190.111 145.57 190.4 145.655 190.626 145.838C190.852 146.021 190.996 146.286 191.027 146.575L191.348 149.608C191.355 149.672 191.336 149.736 191.295 149.786C191.255 149.836 191.196 149.868 191.133 149.874L189.436 150.054C189.372 150.061 189.309 150.042 189.259 150.001C189.209 149.961 189.177 149.902 189.17 149.838L188.85 146.814C188.819 146.524 188.905 146.235 189.088 146.009C189.271 145.783 189.536 145.639 189.825 145.608L189.821 145.6Z" fill="#FFD5A7"/>
<path d="M185.966 185.729H153.357V196.641H185.966V185.729Z" fill="#E49E8A"/>
<path d="M177.919 185.729H173.951V196.641H177.919V185.729Z" fill="#405182"/>
<path d="M165.333 185.729H161.365V196.641H165.333V185.729Z" fill="#405182"/>
<path d="M153.357 191.185H185.969V206.932C185.969 208.037 185.53 209.097 184.748 209.879C183.967 210.66 182.907 211.099 181.802 211.099H157.526C156.421 211.099 155.361 210.66 154.58 209.879C153.798 209.097 153.359 208.037 153.359 206.932V191.185H153.357Z" fill="#405182"/>
<path d="M169.667 174.716C170.568 174.716 171.727 173.276 172.604 174.154C173.482 175.031 172.448 177.57 169.667 177.57C166.885 177.57 165.443 175 166.542 174.091C167.641 173.182 168.578 174.716 169.667 174.716Z" fill="#F8B558"/>
<path d="M162.372 174.471C165.396 174.471 167.846 171.639 167.846 168.146C167.846 164.652 165.396 161.82 162.372 161.82C159.349 161.82 156.898 164.652 156.898 168.146C156.898 171.639 159.349 174.471 162.372 174.471Z" fill="white"/>
<path d="M164.023 172.253C165.987 172.253 167.578 170.414 167.578 168.146C167.578 165.878 165.987 164.039 164.023 164.039C162.06 164.039 160.469 165.878 160.469 168.146C160.469 170.414 162.06 172.253 164.023 172.253Z" fill="#2C254C"/>
<path d="M166.716 165.997C166.992 165.765 166.949 165.259 166.62 164.867C166.29 164.475 165.799 164.346 165.523 164.579C165.246 164.811 165.29 165.317 165.619 165.709C165.949 166.101 166.44 166.23 166.716 165.997Z" fill="white"/>
<path d="M176.953 174.471C179.976 174.471 182.427 171.639 182.427 168.146C182.427 164.652 179.976 161.82 176.953 161.82C173.93 161.82 171.479 164.652 171.479 168.146C171.479 171.639 173.93 174.471 176.953 174.471Z" fill="white"/>
<path d="M175.302 172.253C177.265 172.253 178.857 170.414 178.857 168.146C178.857 165.878 177.265 164.039 175.302 164.039C173.339 164.039 171.747 165.878 171.747 168.146C171.747 170.414 173.339 172.253 175.302 172.253Z" fill="#2C254C"/>
<path d="M177.991 165.999C178.267 165.767 178.224 165.261 177.895 164.869C177.565 164.477 177.074 164.348 176.798 164.58C176.521 164.812 176.565 165.318 176.894 165.71C177.224 166.102 177.715 166.231 177.991 165.999Z" fill="white"/>
<path d="M178.823 148.82C176.127 147.348 173.112 146.554 170.041 146.507C166.969 146.46 163.932 147.161 161.192 148.551C158.452 149.941 156.091 151.976 154.314 154.482C152.537 156.988 151.397 159.889 150.992 162.935H151.042L153.456 165.646C153.456 165.646 153.977 163.112 158.372 162.151L158.612 162.096C166.732 160.259 173.912 155.543 178.823 148.82Z" fill="#182844"/>
<path d="M177.148 148.005C177.125 148.398 177.109 148.786 177.109 149.19C177.11 152.941 178.196 156.612 180.236 159.759C182.277 162.907 185.185 165.396 188.609 166.927C188.648 166.432 188.674 165.935 188.674 165.43C188.674 161.715 187.581 158.083 185.532 154.984C183.482 151.886 180.567 149.459 177.148 148.005Z" fill="#182844"/>
<path d="M172.867 157.529C173.39 157.307 173.94 157.155 174.503 157.078C174.994 157.008 175.491 156.984 175.987 157.005C176.906 157.051 177.812 157.249 178.667 157.591C179.52 157.932 180.311 158.409 181.01 159.005C181.39 159.329 181.739 159.687 182.052 160.076C182.409 160.515 182.706 161 182.935 161.518L182.844 161.745L181.565 161.302L180.294 160.836C179.448 160.521 178.609 160.187 177.768 159.865C176.927 159.542 176.091 159.193 175.26 158.854L174.016 158.333L172.779 157.781L172.867 157.529ZM156.034 161.518C156.261 160.998 156.557 160.512 156.914 160.07C157.227 159.682 157.576 159.324 157.956 159C158.654 158.404 159.446 157.928 160.299 157.591C161.156 157.252 162.062 157.055 162.982 157.01C163.478 156.989 163.975 157.013 164.466 157.083C165.027 157.16 165.576 157.31 166.099 157.529L166.187 157.758L164.953 158.31L163.706 158.831C162.875 159.182 162.036 159.513 161.2 159.854C160.365 160.195 159.521 160.51 158.674 160.826L157.404 161.292L156.122 161.734L156.034 161.518Z" fill="#F8B558"/>
<path d="M189.346 213.135L193.513 209.396" stroke="#405182" stroke-width="3.1875" stroke-linecap="round" stroke-linejoin="round"/>
<path d="M150.151 213.135L145.982 209.396" stroke="#405182" stroke-width="3.1875" stroke-linecap="round" stroke-linejoin="round"/>
<path d="M228.706 288.581C228.706 300.745 184.661 300.745 184.661 288.581C184.725 282.782 187.073 277.241 191.196 273.163C195.319 269.084 200.884 266.797 206.684 266.797C212.483 266.797 218.049 269.084 222.172 273.163C226.295 277.241 228.643 282.782 228.706 288.581Z" fill="#6B1F1F"/>
<path d="M195.315 279.177C199.999 279.177 203.797 275.38 203.797 270.695C203.797 266.011 199.999 262.214 195.315 262.214C190.631 262.214 186.833 266.011 186.833 270.695C186.833 275.38 190.631 279.177 195.315 279.177Z" fill="#6B1F1F"/>
<path d="M201.505 268.682C206.19 268.682 209.987 264.885 209.987 260.201C209.987 255.516 206.19 251.719 201.505 251.719C196.821 251.719 193.023 255.516 193.023 260.201C193.023 264.885 196.821 268.682 201.505 268.682Z" fill="#6B1F1F"/>
<path d="M208.378 270.445C213.062 270.445 216.859 266.648 216.859 261.964C216.859 257.279 213.062 253.482 208.378 253.482C203.693 253.482 199.896 257.279 199.896 261.964C199.896 266.648 203.693 270.445 208.378 270.445Z" fill="#6B1F1F"/>
<path d="M214.818 280.503C219.502 280.503 223.299 276.705 223.299 272.021C223.299 267.336 219.502 263.539 214.818 263.539C210.133 263.539 206.336 267.336 206.336 272.021C206.336 276.705 210.133 280.503 214.818 280.503Z" fill="#6B1F1F"/>
<path d="M205.005 284.159C209.69 284.159 213.487 280.361 213.487 275.677C213.487 270.993 209.69 267.195 205.005 267.195C200.321 267.195 196.523 270.993 196.523 275.677C196.523 280.361 200.321 284.159 205.005 284.159Z" fill="#6B1F1F"/>
<path d="M187.75 296.734C189.932 296.734 191.7 294.966 191.7 292.784C191.7 290.602 189.932 288.833 187.75 288.833C185.568 288.833 183.799 290.602 183.799 292.784C183.799 294.966 185.568 296.734 187.75 296.734Z" fill="#B26C50"/>
<path d="M223.195 296.734C225.377 296.734 227.146 294.966 227.146 292.784C227.146 290.602 225.377 288.833 223.195 288.833C221.013 288.833 219.245 290.602 219.245 292.784C219.245 294.966 221.013 296.734 223.195 296.734Z" fill="#B26C50"/>
<path d="M206.826 269.451C211.858 269.451 216.684 271.45 220.242 275.008C223.8 278.566 225.799 283.392 225.799 288.425V318.555H187.852V288.425C187.852 283.392 189.851 278.566 193.409 275.008C196.967 271.45 201.793 269.451 206.826 269.451Z" fill="#B26C50"/>
<path d="M203.312 345.591H196.854C195.448 345.591 194.307 346.731 194.307 348.138C194.307 349.545 195.448 350.685 196.854 350.685H203.312C204.719 350.685 205.859 349.545 205.859 348.138C205.859 346.731 204.719 345.591 203.312 345.591Z" fill="#438FAA"/>
<path d="M219.661 345.591H213.203C211.797 345.591 210.656 346.731 210.656 348.138C210.656 349.545 211.797 350.685 213.203 350.685H219.661C221.068 350.685 222.208 349.545 222.208 348.138C222.208 346.731 221.068 345.591 219.661 345.591Z" fill="#438FAA"/>
<path d="M230.335 321.682L232.316 320.505C232.768 320.236 233.308 320.158 233.817 320.288C234.327 320.417 234.764 320.744 235.032 321.196L237.636 325.577C238.059 326.29 238.182 327.141 237.978 327.944C237.773 328.748 237.258 329.437 236.546 329.86C235.833 330.283 234.982 330.406 234.178 330.202C233.375 329.998 232.686 329.482 232.263 328.77L229.659 324.389C229.392 323.94 229.314 323.403 229.44 322.896C229.567 322.389 229.888 321.953 230.335 321.682Z" fill="#B26C50"/>
<path d="M229.856 322.878L231.829 323.087C231.904 323.095 231.973 323.132 232.02 323.191C232.067 323.249 232.089 323.324 232.082 323.399L231.707 326.934C231.672 327.271 231.504 327.579 231.241 327.792C230.978 328.005 230.641 328.104 230.304 328.069C229.968 328.033 229.659 327.865 229.446 327.602C229.234 327.339 229.134 327.002 229.17 326.666L229.544 323.131C229.552 323.056 229.589 322.987 229.647 322.94C229.706 322.892 229.781 322.87 229.856 322.878Z" fill="#B26C50"/>
<path d="M225.797 312.206H187.852V324.904H225.797V312.206Z" fill="#3F3F3F"/>
<path d="M219.034 312.206H214.417V324.904H219.034V312.206Z" fill="#438FAA"/>
<path d="M206.995 312.206H202.378V324.904H206.995V312.206Z" fill="#438FAA"/>
<path d="M187.852 318.555H225.799V336.878C225.799 338.164 225.289 339.397 224.379 340.306C223.47 341.216 222.237 341.727 220.951 341.727H192.708C191.422 341.727 190.189 341.216 189.28 340.306C188.37 339.397 187.859 338.164 187.859 336.878V318.555H187.852Z" fill="#438FAA"/>
<path d="M185.938 285.172C185.599 286.323 185.417 287.807 186.323 288.526C187.104 289.135 188.253 288.768 188.911 288.026C189.57 287.284 189.867 286.271 190.214 285.32C191.448 281.958 193.438 279.612 196.135 277.419C197.245 276.518 199.602 274.875 201.966 274.635C204.971 274.331 206.49 275.607 207.435 276.185C209.273 277.305 211.305 278.071 213.425 278.445C213.464 278.452 213.504 278.446 213.539 278.427C213.574 278.409 213.602 278.38 213.618 278.344C213.635 278.308 213.639 278.267 213.631 278.229C213.622 278.19 213.601 278.155 213.57 278.13C212.747 277.481 212.139 276.598 211.828 275.596C211.816 275.543 211.82 275.488 211.841 275.437C211.862 275.387 211.898 275.344 211.944 275.316C211.991 275.287 212.045 275.273 212.099 275.277C212.154 275.281 212.205 275.301 212.247 275.336C213.625 276.661 217.172 279.818 220.648 281.602C222.802 282.708 225.662 284.206 227.867 285.198C228.19 282.726 227.227 280.216 225.74 278.284C224.253 276.352 222.284 274.917 220.302 273.596C216.477 271.023 212.365 268.677 207.875 268.083C205.568 267.797 203.226 267.971 200.987 268.597C198.748 269.223 196.655 270.288 194.831 271.729C191.122 274.656 186.719 280.344 185.938 285.172Z" fill="#6B1F1F"/>
<path d="M201.99 299.104C205.507 299.104 208.359 295.809 208.359 291.745C208.359 287.68 205.507 284.385 201.99 284.385C198.472 284.385 195.62 287.68 195.62 291.745C195.62 295.809 198.472 299.104 201.99 299.104Z" fill="white"/>
<path d="M203.911 296.523C206.195 296.523 208.047 294.384 208.047 291.745C208.047 289.106 206.195 286.966 203.911 286.966C201.627 286.966 199.776 289.106 199.776 291.745C199.776 294.384 201.627 296.523 203.911 296.523Z" fill="#182844"/>
<path d="M207.043 289.246C207.365 288.975 207.315 288.385 206.931 287.928C206.547 287.471 205.974 287.321 205.652 287.592C205.329 287.863 205.379 288.454 205.763 288.91C206.148 289.367 206.72 289.517 207.043 289.246Z" fill="white"/>
<path d="M217.914 299.104C221.432 299.104 224.284 295.809 224.284 291.745C224.284 287.68 221.432 284.385 217.914 284.385C214.396 284.385 211.544 287.68 211.544 291.745C211.544 295.809 214.396 299.104 217.914 299.104Z" fill="white"/>
<path d="M215.992 296.523C218.276 296.523 220.128 294.384 220.128 291.745C220.128 289.106 218.276 286.966 215.992 286.966C213.708 286.966 211.857 289.106 211.857 291.745C211.857 294.384 213.708 296.523 215.992 296.523Z" fill="#182844"/>
<path d="M219.124 289.245C219.446 288.974 219.396 288.384 219.012 287.927C218.628 287.471 218.055 287.32 217.732 287.591C217.41 287.863 217.46 288.453 217.844 288.91C218.228 289.366 218.801 289.517 219.124 289.245Z" fill="white"/>
<path d="M213.159 280.904C213.476 280.766 213.803 280.654 214.138 280.568C214.442 280.489 214.75 280.425 215.06 280.378C215.633 280.296 216.211 280.268 216.789 280.294C218.943 280.404 221 281.222 222.641 282.622C223.323 283.198 223.912 283.876 224.385 284.633C224.571 284.924 224.733 285.23 224.87 285.547L224.766 285.807L223.276 285.286L221.797 284.745C220.813 284.38 219.839 283.99 218.857 283.615C217.875 283.24 216.909 282.833 215.94 282.424L214.492 281.807L213.055 281.161L213.159 280.904ZM206.357 280.99C206.232 281.312 206.08 281.623 205.904 281.919C205.74 282.203 205.563 282.458 205.383 282.701C205.036 283.163 204.647 283.591 204.219 283.979C203.427 284.701 202.519 285.285 201.534 285.706C200.551 286.134 199.504 286.398 198.435 286.487C197.859 286.53 197.28 286.521 196.706 286.458C196.395 286.422 196.086 286.369 195.781 286.299C195.444 286.225 195.113 286.123 194.792 285.995L194.677 285.734L196.096 285.047L197.526 284.385C198.479 283.945 199.445 283.531 200.391 283.104C201.336 282.677 202.323 282.281 203.294 281.885L204.755 281.297L206.25 280.729L206.357 280.99ZM205.005 301.635C205.02 301.127 205.16 300.63 205.412 300.187C205.662 299.727 206.012 299.328 206.438 299.021C206.677 298.85 206.941 298.714 207.219 298.617C207.525 298.51 207.847 298.454 208.172 298.453C208.804 298.452 209.424 298.625 209.964 298.953C210.338 299.186 210.687 299.457 211.005 299.763C211.153 299.927 211.33 300.064 211.526 300.167C211.777 300.265 212.056 300.265 212.307 300.167C212.694 300.007 213.047 299.777 213.349 299.487C213.427 299.884 213.393 300.295 213.248 300.673C213.104 301.051 212.857 301.381 212.534 301.625C212.277 301.817 211.982 301.952 211.669 302.023C211.345 302.107 211.008 302.123 210.677 302.07C210.367 302.022 210.066 301.928 209.784 301.792C209.281 301.549 208.953 301.323 208.706 301.208C208.515 301.11 208.309 301.044 208.096 301.013C207.998 300.994 207.897 300.983 207.797 300.979C207.663 300.977 207.529 300.986 207.396 301.005C207.038 301.062 206.685 301.144 206.339 301.253C205.938 301.365 205.516 301.503 205.005 301.635Z" fill="#934B3E"/>
<path d="M214.601 303.622C214.806 304.425 214.683 305.277 214.259 305.989C213.836 306.702 213.147 307.217 212.344 307.421L207.405 308.678C206.895 308.808 206.355 308.73 205.904 308.462C205.452 308.193 205.125 307.756 204.995 307.247L204.427 305.013C204.297 304.504 204.375 303.964 204.644 303.512C204.912 303.06 205.349 302.734 205.859 302.604L210.79 301.349C211.593 301.144 212.445 301.267 213.157 301.691C213.87 302.114 214.385 302.803 214.589 303.606L214.601 303.622Z" fill="#9F5F53"/>
<path d="M208.875 300.465C209.138 300.677 209.306 300.986 209.342 301.322C209.378 301.659 209.278 301.996 209.065 302.259L206.835 305.017C206.812 305.046 206.783 305.07 206.75 305.088C206.717 305.106 206.681 305.117 206.644 305.121C206.607 305.125 206.57 305.121 206.534 305.111C206.498 305.1 206.465 305.083 206.436 305.059L204.893 303.812C204.864 303.788 204.84 303.759 204.822 303.727C204.804 303.694 204.793 303.658 204.789 303.621C204.785 303.584 204.788 303.546 204.799 303.51C204.81 303.475 204.827 303.441 204.851 303.412L207.081 300.654C207.294 300.391 207.602 300.223 207.939 300.188C208.275 300.152 208.612 300.252 208.875 300.465Z" fill="#9F5F53"/>
<defs>
<linearGradient id="paint0_linear_8_117" x1="196.362" y1="225.755" x2="312.091" y2="225.755" gradientUnits="userSpaceOnUse">
<stop stop-color="#80AF81"/>
<stop offset="1" stop-color="#508D4E"/>
</linearGradient>
<linearGradient id="paint1_linear_8_117" x1="113.685" y1="266.872" x2="227.497" y2="266.872" gradientUnits="userSpaceOnUse">
<stop stop-color="#80AF81"/>
<stop offset="1" stop-color="#508D4E"/>
</linearGradient>
<linearGradient id="paint2_linear_8_117" x1="268.385" y1="297.849" x2="375.398" y2="297.849" gradientUnits="userSpaceOnUse">
<stop stop-color="#80AF81"/>
<stop offset="1" stop-color="#508D4E"/>
</linearGradient>
</defs>
</svg>
