<svg xmlns="http://www.w3.org/2000/svg" width="1600.003" height="1600.003" fill-rule="evenodd" clip-rule="evenodd" image-rendering="optimizeQuality" shape-rendering="geometricPrecision" text-rendering="geometricPrecision" viewBox="0 0 16666.66 16666.66" id="crowdfunding-idea">
  <rect width="16666.66" height="16666.66" fill="none"></rect>
  <rect width="16666.66" height="16666.66" fill="none"></rect>
  <path fill="#2c2a43" fill-rule="nonzero" d="M4440.14 14419.17c0 0-309.13 607.05-240.43 733.04 68.71 125.98 1365.65 664.26 1520.27 586.87 154.62-77.24 162.93-300.46-85.5-479.4-266.31-191.79-441.56-164.75-598.83-310.85-157.38-145.94 0-420.78 0-420.78l-595.51-108.89zM8794.85 14641.68c0 0-15.49 663.48 96.68 752.81 112.21 89.45 1516.51 81.93 1629.09-49.27 112.46-131.24 41.78-313.6-244.11-370.88-256.96-51.39-446.55 2.61-645.57-77.65-174.73-70.43-269.21-456.94-269.21-456.94l-566.88 201.92z"></path>
  <path fill="#f1666e" fill-rule="nonzero" d="M7659.5 7526.25l-1829.66 112.43c0,0 1537.74,3451.15 1726.66,3846.27 188.92,395.08 1150.99,3246.85 1150.99,3246.85l743.06 -274.8c0,0 -846.18,-2972.05 -949.19,-3229.76 -103.12,-257.63 -841.86,-3701 -841.86,-3701z"></path>
  <path fill="#eaa3ab" fill-rule="nonzero" d="M7633.73 11669.81c-29.01,-74.07 -53.44,-133.47 -71.72,-172.98 18.28,39.51 42.71,98.54 71.72,172.87 0,0.11 0,0.11 0,0.11zm-72.1 -173.76l0 -0.15 0 0.15z"></path>
  <path fill="#e85058" fill-rule="nonzero" d="M7633.73 11669.7c-29.01,-74.33 -53.44,-133.36 -71.72,-172.87 -0.11,-0.26 -0.26,-0.52 -0.37,-0.78l0 -0.15c-1.71,-3.8 -3.43,-7.48 -5.14,-10.95l0 0c-188.92,-395.12 -1726.66,-3846.27 -1726.66,-3846.27l1512.78 -92.99c19.85,28.78 45.17,53.22 73.29,75.11 -12.85,120.51 -181.81,126.58 -208.36,247.54 -66.74,304.78 -108.63,702.17 -168.14,1008.55 -67.81,347.79 546.39,2062.01 586.05,2594.58 4.99,65.95 7.63,132.06 8.27,198.23z"></path>
  <path fill="#f1666e" fill-rule="nonzero" d="M7144.25 7680.87l-1563.39 0c0,0 -274.83,566.91 -180.36,1236.94 94.44,669.95 117.46,2200.61 105.88,2372.48 -11.43,171.76 -1046.94,2519.51 -1167.16,3160.9l720.49 257.78c0,0 1420.17,-2903.3 1466.01,-2972.13 45.84,-68.71 618.53,-4055.97 618.53,-4055.97z"></path>
  <path fill="#fbcdc2" fill-rule="nonzero" d="M7582.27 6985.07c0,0 309.24,446.66 523.9,412.29 214.8,-34.33 1520.42,-936.19 1520.42,-936.19l-120.21 -292.07c0,0 -1193.93,815.98 -1314.29,781.6 -120.18,-34.33 -274.83,-360.79 -274.83,-360.79l-334.98 395.16z"></path>
  <path fill="#e7a192" fill-rule="nonzero" d="M7582.27 6985.07c0,0 309.24,446.66 523.9,412.29 214.8,-34.33 1520.42,-936.19 1520.42,-936.19l-120.21 -292.07c0,0 -1193.93,815.98 -1314.29,781.6 -120.18,-34.33 -274.83,-360.79 -274.83,-360.79l-334.98 395.16z"></path>
  <path fill="#b0ddd3" fill-rule="nonzero" d="M5174.26 8207.71c0,0 1569.02,354.94 2771.63,-80.18 0,0 -269.17,-1110.88 -363.62,-1729.45 -94.48,-618.49 -220.46,-1591.84 -575.59,-1832.45 -354.98,-240.5 -592.61,-277.67 -592.61,-277.67 0,0 -68.71,231.86 -283.51,283.33 -214.69,51.69 -652.82,-283.33 -652.82,-283.33 0,0 -996.37,458.88 -1109.88,644.78 -232.38,380.71 697.63,1433.83 835.04,1992.18 137.42,558.35 -28.64,1282.79 -28.64,1282.79z"></path>
  <path fill="#79cbc2" fill-rule="nonzero" d="M5965.66 6781.33c-73.03,-255.39 -65.95,-825.81 -368.12,-1114.24 -174.43,-166.57 -387.82,-424.84 -646.87,-469.64 -312.97,-54.11 -333.45,10.5 -613.68,-54.37 58.35,472.14 748.87,1306.02 865.91,1781.85 137.42,558.35 -28.64,1282.79 -28.64,1282.79 0,0 618.64,139.87 1376.67,136.33 -282.32,-476.64 -440.48,-1056.25 -585.27,-1562.72z"></path>
  <path fill="#fbcdc2" fill-rule="nonzero" d="M5280.28 3574.96c0,0 352.07,627.05 180.36,816.02 0,0 472.43,429.57 841.74,249.03 369.43,-180.36 155.15,-342.31 155.15,-342.31 0,0 -258.15,-112.88 -387.04,-654.02 -128.85,-541.1 -790.21,-68.71 -790.21,-68.71z"></path>
  <path fill="#e7a192" fill-rule="nonzero" d="M5653.25 4531.93c60.44,-98.02 136.37,-185.01 238.08,-255.8 116.53,-81.22 256.55,-117.35 397.65,-132.06 -75.41,-98.8 -160.13,-255.36 -218.49,-500.4 -128.85,-541.1 -790.21,-68.71 -790.21,-68.71 0,0 352.07,627.05 180.36,816.02 0,0 77.13,69.56 192.61,140.95z"></path>
  <path fill="#2c2a43" fill-rule="nonzero" d="M5082.69 2333.74c0,220.57 -180.24,399.52 -402.42,399.52 -222.29,0 -402.39,-178.94 -402.39,-399.52 0,-220.57 180.09,-399.41 402.39,-399.41 222.18,0 402.42,178.83 402.42,399.41z"></path>
  <path fill="#fbcdc2" fill-rule="nonzero" d="M5899.7 2303.65c0,0 260.91,77.39 321.09,305.04 60.18,227.58 30.09,133.1 81.59,163.19 51.5,30.09 322.13,231.9 300.57,266.27 -21.41,34.3 -158.83,120.25 -193.24,137.45 0,0 60.18,102.97 137.56,244.71 77.24,141.81 -425.28,317.85 -601.32,253.46 -176.18,-64.39 -614.17,-343.54 -631.38,-764.47 -17.24,-420.93 173.91,-730.17 585.12,-605.64z"></path>
  <path fill="#2c2a43" fill-rule="nonzero" d="M4835.04 2303.65c0,0 325.7,-154.51 478.46,-223.22 152.8,-68.71 330.29,-171.83 553.62,-120.32 223.37,51.61 425.92,282.84 307.42,545.2 0,0 -158.42,-215.85 -313.04,-171.57 -154.62,44.39 -120.36,279.15 -206.13,399.52 -85.95,120.21 80.14,545.57 171.68,650.67 0,0 595.66,46.4 670.81,-53.03 0,0 53.63,80.93 130.98,226.87 77.27,146.09 206.16,356.54 21.41,455.34 -184.71,98.69 -742.91,-4.32 -790.21,-51.61 -47.3,-47.19 -199.94,-447.7 -373.63,-386.52 -173.69,61.19 -125.09,161.48 -125.09,161.48 0,0 -106.92,70.42 -351.66,-135.74 -244.78,-206.09 -263.7,-463.34 -214.69,-682.88 48.89,-219.53 41.52,-584.08 40.07,-614.17z"></path>
  <path fill="#fbcdc2" fill-rule="nonzero" d="M5619.77 3350.07c0,0 -96.97,-179.2 -193.8,-266.46 -96.94,-87.22 -248.69,16.94 -209.92,205.9 38.73,189 463.34,159.61 403.72,60.56z"></path>
  <path fill="#ffce72" fill-rule="nonzero" d="M7144.25 4709.31c0,0 45.73,234.35 0,429.01 -45.85,194.69 -1052.72,1603.35 -950.12,1924.03 102.6,320.72 1007.28,859.06 1247.81,801.75 240.54,-57.24 1142.84,-1367.58 1349.74,-1362.85 206.8,4.58 2532.8,286.27 3334.48,-1500.31 801.79,-1786.72 34.41,-2874.78 -377.99,-3309.9 -412.25,-435.27 -2336.66,-1435.96 -3893.98,-103.12 -1271.2,1088.05 -709.95,2692.3 -709.95,3121.39z"></path>
  <path fill="#268ccb" fill-rule="nonzero" d="M7350.11 5945.76c0 0 970.86-1185.4 1022.37-1425.94 51.65-240.54 137.42-1159.55 171.83-1340.02 34.3-180.24 292.19-211.68 247.39 60.14-38.35 232.42-92.73 1090.96-187.32 1383.04-94.48 292-1039.34 1597.65-1039.34 1597.65l-214.92-274.87zM8050.08 6510.93c0 0 896.12-1242.94 1115.24-1354.44 219.16-111.69 1085.3-430.76 1250.83-510.42 165.54-79.58 129.56-336.84-121.63-223.59-214.69 96.83-1030.41 369.95-1288.41 536.26-257.89 166.43-1276.87 1415.06-1276.87 1415.06l320.83 137.12z"></path>
  <path fill="#268ccb" fill-rule="nonzero" d="M9343.33 3414.01c50.98,7.75 95.52,6.85 130.45,-6.15 105.65,-39.18 143.08,-145.57 118.24,-225.83 -21.68,-69.38 -83.27,-96.82 -169.07,-75.26 -85.65,21.63 -100.77,152.61 -87.63,258.26 2.12,16.28 4.73,32.7 8.01,48.97zm605.53 170.78c-20.37,0 -43.5,4.1 -68.86,12.52 -87.11,28.64 -95.89,75.56 -93.77,113.1 2.35,44.84 22.19,96.3 54.78,150.26 91.17,-15.6 159.09,-59.88 187.99,-124.9 20.22,-45.47 16.42,-95.41 -9.46,-124.01 -16.16,-17.88 -40.33,-26.96 -70.68,-26.96zm493.7 886.44c-220.43,-46.92 -508.41,-249.36 -670,-466.81l-8.56 0c-255.77,0 -453.11,-222.4 -532.58,-474.56 -266.45,-72.77 -554.96,-274.54 -598.3,-305.52l80.03 -111.69c124.53,88.93 316.21,201.29 485.02,262.1 -24.43,-211.64 48.49,-365.25 191.16,-401.23 179.98,-45.99 297.7,51.39 333.82,167.62 44.02,141.48 -19.44,328.09 -201.51,395.57 -40.48,14.97 -85.69,19.85 -134.14,18.92 60.96,142.59 166.84,264.37 297.03,300.49 -20.63,-47.33 -33.22,-94.07 -35.6,-138.35 -3.69,-69.38 15.75,-194.32 188.14,-250.93 115.86,-38.21 219.54,-18.92 284.41,52.66 62.68,69.23 75.67,176.07 33.11,272.11 -40.07,90.12 -119.92,155.78 -224.9,188.77 141.89,162.48 362.98,318.44 541.4,356.43l-28.52 134.4z"></path>
  <path fill="#344c9d" fill-rule="nonzero" d="M7899.52 5959.58c-204.93,-182.33 -514.07,-348.65 -638.86,-604.6 -40.74,-83.31 -76.08,-168.44 -109.86,-254.09 -2.23,12.48 -3.65,25.21 -6.55,37.43 -45.85,194.69 -1052.72,1603.35 -950.12,1924.03 102.6,320.72 1007.28,859.06 1247.81,801.75 216.11,-51.47 965.09,-1111.78 1265.13,-1323.6 -293.49,-155.03 -562.81,-363.39 -807.56,-580.91z"></path>
  <path fill="#2c2a43" fill-rule="nonzero" d="M8262.76 7001.9c81.33-95.22 159.24-184.34 230.7-261.17-805.33-321.61-1289.56-1088.2-1455.24-1393.24-55.04 94.59-127.03 212.42-206.13 342.09 381.27 623.11 1108.95 1115.02 1430.67 1312.32zM7879.82 7452.81c70.28-81.11 143.19-167.1 216.89-254.61-745.15-335.43-1199.44-1043-1364.45-1343.97-67.93 112.43-137.31 229.14-203.26 344.96 357.88 574.25 1005.98 1035.25 1350.82 1253.63zM7699.05 7653.39c-676.74-339.89-1097.92-979.65-1266.21-1280.4-73.18 136.41-135.59 265-179.72 377.21 321.35 484.13 839.51 882.23 1186.18 1114.09l2.64-.19c55.71-13.22 147.55-95.22 257.11-210.71z"></path>
  <path fill="#fbcdc2" fill-rule="nonzero" d="M5409.02 6091.71c0,0 446.67,919.13 541.14,927.7 94.59,8.68 1722.07,-120.25 1840.31,-188.96 68.97,-39.92 121.41,-100.47 181.96,-151.19 26.81,-22.46 55.19,-47.3 84.2,-66.25 33.93,-22.05 73.59,-32.66 104.98,-59.21 25.1,-21.3 114.03,-153.36 164.23,-140.81 39.66,9.83 36.5,40.18 29.42,72.1 -9.2,41.26 -65.69,80.25 -93.02,109.71 -15.76,16.8 -62.38,64.35 -54.26,91.17 11.17,36.54 91.83,-27.3 110.12,-38.88 29.53,-18.66 52.03,-37.87 75,-64.8 24.69,-28.49 46.89,-59.21 68.71,-91.13 13,-19.07 25.62,-39.33 38.24,-58.21 21.53,-32.06 40.59,-60.89 59.25,-94.48 13.93,-25.36 36.23,-54.26 68.19,-37.05 35.86,19.29 0.63,78.84 -13.3,104.57 -14.97,27.74 -27.85,53.59 -39.92,82.37 -7.89,18.96 -39.14,50.98 -28.26,73.29 33.78,-22.68 64.8,-69.34 88.97,-101.93 16.42,-21.97 99.84,-158.72 137.94,-132.13 60.56,42.27 -11.95,131.98 -39.96,169.7 -17.84,24.06 -39.25,50.43 -62.38,69.49l-47.04 55.82c57.39,-5.62 98.8,-92.58 134.4,-133.32 21.93,-25.25 91.83,-98.95 101.55,-25.51 4.06,30.24 -13.93,53.89 -29.72,77.54 -22.31,33.48 -57.13,73.81 -89.86,97.2 -27.04,19.48 -58.46,65.95 -58.46,65.95 42.86,-1 127.17,-110.08 166.2,-80.92 25.21,19.03 -2.49,71.06 -16.42,86.73 -98.8,110.57 -249.21,184.6 -377.84,254.31 -140.02,75.82 -284.96,142.44 -433,200.87 -211.11,83.46 -2001.53,644.26 -2216.18,618.38 -214.8,-25.77 -781.71,-1122.98 -944.87,-1441.84 -163.19,-318.93 549.67,-250.29 549.67,-250.29z"></path>
  <path fill="#b0ddd3" fill-rule="nonzero" d="M4799.18 6589.91c0,0 566.87,-209.93 893.36,-504.35 0,0 -731,-1642.98 -1250.17,-1230.72 -519.35,412.25 356.8,1735.07 356.8,1735.07z"></path>
  <path fill="#e7a192" fill-rule="nonzero" d="M5322.85 3153.51c0,0 99.69,-29.72 162.52,62.53 58.58,85.95 12.74,209.18 -48.49,154.25 -61.07,-54.93 -30.09,-93.14 -37.31,-133.47 -7.37,-40.19 -51.24,-76.75 -76.72,-83.31z"></path>
  <path fill="#fbcdc2" fill-rule="nonzero" d="M9576.27 6408.77c28.12,-18.28 66.74,1.53 115.37,43.98 -63.87,-79.77 -140.21,-162.11 -65.06,-173.17 72.65,-10.5 122.7,101.81 175.4,136.78 -28.12,-39.18 -194.32,-154.88 -129.67,-241.73 38.51,-51.5 216.37,150.41 253.31,190.74 -34.71,-32.85 -184.6,-190.74 -104.98,-223.22 71.72,-29.24 174.32,105.76 225.42,148.7 37.46,31.58 90.16,57.69 98.8,109.48 16.94,100.48 -129.67,169.11 -205.87,190.49 -100.21,28.11 -210.85,1.94 -299.67,-50.2 -51.62,-30.31 -91.28,-113.66 -63.05,-131.87z"></path>
</svg>
