<svg width="459" height="500" viewBox="0 0 459 500" fill="none" xmlns="http://www.w3.org/2000/svg">
<path d="M90.9453 365.328H331.323C332.38 364.347 333.422 363.358 334.448 362.359C343.042 354.101 351.326 345.299 357.036 334.844C359.013 331.229 360.682 326.828 358.906 323.104C358.01 321.211 356.333 319.797 354.542 318.711C343.836 312.226 327.828 315.325 320.146 305.458C315.831 299.911 315.951 292.099 317.505 285.247C319.813 275.091 324.839 265.049 323.156 254.763C320.917 241.091 307.344 231.937 293.859 228.758C280.375 225.578 266.242 226.674 252.555 224.526C238.867 222.378 224.479 215.706 219.242 202.88C216.638 196.487 216.451 188.94 212.076 183.609C208.003 178.638 201.18 176.797 194.758 176.539C170.331 175.549 147 196.07 144.875 220.437C143.922 231.375 146.438 243.526 140.154 252.529C133.229 262.443 119.344 263.479 107.466 265.742C96.5286 267.825 85.4635 272.068 78.3151 280.586C70.6667 289.716 68.6719 302.432 69.4531 314.323C70.6901 333.104 78.6328 351.128 90.9453 365.328Z" fill="#D6EFD8"/>
<path d="M141.357 308.029H143.495C143.822 308.029 144.147 308.093 144.449 308.219C144.752 308.344 145.027 308.528 145.259 308.759C145.49 308.991 145.674 309.266 145.8 309.569C145.925 309.871 145.99 310.196 145.99 310.523V312.661C145.99 316.576 144.434 320.331 141.666 323.099C138.898 325.867 135.144 327.422 131.229 327.422H129.091C128.429 327.422 127.795 327.159 127.327 326.691C126.859 326.223 126.596 325.589 126.596 324.927V322.789C126.596 318.874 128.151 315.12 130.92 312.352C133.688 309.584 137.442 308.029 141.357 308.029Z" fill="url(#paint0_linear_9_6)"/>
<path d="M126.508 272.133V328.349" stroke="#75ACC9" stroke-width="2.21812" stroke-miterlimit="10"/>
<path d="M124.698 332.464H122.56C118.645 332.464 114.891 330.908 112.123 328.14C109.355 325.372 107.799 321.618 107.799 317.703V315.565C107.799 314.903 108.062 314.269 108.53 313.801C108.998 313.333 109.633 313.07 110.294 313.07H112.432C116.347 313.07 120.101 314.624 122.869 317.391C125.638 320.158 127.194 323.911 127.195 327.825V329.964C127.195 330.291 127.131 330.616 127.005 330.918C126.88 331.221 126.696 331.496 126.465 331.728C126.233 331.959 125.958 332.143 125.655 332.268C125.353 332.394 125.028 332.458 124.701 332.458L124.698 332.464Z" fill="url(#paint1_linear_9_6)"/>
<path d="M135.953 365.328H117.073C116.126 365.328 115.209 364.996 114.482 364.39C113.755 363.784 113.264 362.942 113.094 362.01L107.901 333.677H145.141L139.948 362.01C139.777 362.944 139.284 363.789 138.553 364.395C137.823 365.002 136.903 365.332 135.953 365.328Z" fill="url(#paint2_linear_9_6)"/>
<path d="M145.685 324.141H107.331C105.589 324.141 104.177 325.553 104.177 327.294V330.523C104.177 332.265 105.589 333.677 107.331 333.677H145.685C147.427 333.677 148.839 332.265 148.839 330.523V327.294C148.839 325.553 147.427 324.141 145.685 324.141Z" fill="url(#paint3_linear_9_6)"/>
<path d="M107.888 333.677H145.128L144.581 336.648H108.432L107.888 333.677Z" fill="#75ACC9"/>
<path d="M136.294 300.31C143.651 300.31 149.615 294.346 149.615 286.989C149.615 279.633 143.651 273.669 136.294 273.669C128.938 273.669 122.974 279.633 122.974 286.989C122.974 294.346 128.938 300.31 136.294 300.31Z" fill="url(#paint4_linear_9_6)"/>
<path d="M116.719 300.31C124.075 300.31 130.039 294.346 130.039 286.989C130.039 279.633 124.075 273.669 116.719 273.669C109.362 273.669 103.398 279.633 103.398 286.989C103.398 294.346 109.362 300.31 116.719 300.31Z" fill="url(#paint5_linear_9_6)"/>
<path d="M126.508 270.188C133.864 270.188 139.828 264.224 139.828 256.867C139.828 249.511 133.864 243.547 126.508 243.547C119.151 243.547 113.188 249.511 113.188 256.867C113.188 264.224 119.151 270.188 126.508 270.188Z" fill="url(#paint6_linear_9_6)"/>
<path d="M110.344 281.826C117.7 281.826 123.664 275.862 123.664 268.505C123.664 261.149 117.7 255.185 110.344 255.185C102.987 255.185 97.0234 261.149 97.0234 268.505C97.0234 275.862 102.987 281.826 110.344 281.826Z" fill="url(#paint7_linear_9_6)"/>
<path d="M142.344 281.693C149.7 281.693 155.664 275.729 155.664 268.372C155.664 261.016 149.7 255.052 142.344 255.052C134.987 255.052 129.023 261.016 129.023 268.372C129.023 275.729 134.987 281.693 142.344 281.693Z" fill="url(#paint8_linear_9_6)"/>
<path d="M126.508 279.797C130.741 279.797 134.172 276.366 134.172 272.133C134.172 267.9 130.741 264.469 126.508 264.469C122.275 264.469 118.844 267.9 118.844 272.133C118.844 276.366 122.275 279.797 126.508 279.797Z" fill="white"/>
<path d="M258.836 304.924V292.367H243.393V304.924C243.394 309.859 241.718 314.648 238.641 318.505L232.245 326.521C231.884 326.98 231.659 327.532 231.596 328.113C231.533 328.694 231.634 329.28 231.887 329.807C232.141 330.333 232.537 330.778 233.031 331.091C233.524 331.403 234.095 331.571 234.68 331.576H267.549C268.134 331.571 268.705 331.403 269.199 331.091C269.692 330.778 270.088 330.333 270.342 329.807C270.595 329.28 270.696 328.694 270.633 328.113C270.57 327.532 270.345 326.98 269.984 326.521L263.589 318.505C260.511 314.648 258.836 309.859 258.836 304.924Z" fill="#1A5319"/>
<path d="M254.917 304.924V292.367H239.469V304.924C239.468 309.859 237.792 314.648 234.714 318.505L228.318 326.521C227.957 326.98 227.732 327.532 227.669 328.113C227.606 328.694 227.707 329.28 227.96 329.807C228.214 330.333 228.61 330.778 229.103 331.091C229.597 331.403 230.168 331.571 230.753 331.576H263.625C264.209 331.571 264.78 331.402 265.273 331.09C265.766 330.777 266.162 330.332 266.415 329.806C266.669 329.279 266.769 328.693 266.706 328.112C266.643 327.531 266.418 326.98 266.057 326.521L259.664 318.505C256.589 314.647 254.915 309.858 254.917 304.924Z" fill="url(#paint9_linear_9_6)"/>
<path d="M325.641 194.604H176.359C171.783 194.604 168.073 198.314 168.073 202.891V286.414C168.073 290.991 171.783 294.7 176.359 294.7H325.641C330.217 294.7 333.927 290.991 333.927 286.414V202.891C333.927 198.314 330.217 194.604 325.641 194.604Z" fill="#1A5319"/>
<path d="M320.581 194.604H172.091C167.296 194.604 163.409 198.491 163.409 203.286V286.018C163.409 290.813 167.296 294.7 172.091 294.7H320.581C325.376 294.7 329.263 290.813 329.263 286.018V203.286C329.263 198.491 325.376 194.604 320.581 194.604Z" fill="url(#paint10_linear_9_6)"/>
<path d="M316.901 199.323H175.771C171.734 199.323 168.461 202.596 168.461 206.633V282.672C168.461 286.709 171.734 289.982 175.771 289.982H316.901C320.938 289.982 324.211 286.709 324.211 282.672V206.633C324.211 202.596 320.938 199.323 316.901 199.323Z" fill="url(#paint11_linear_9_6)"/>
<path d="M216.479 134.672H65.7031C61.6315 134.672 58.3307 137.973 58.3307 142.044V229.141C58.3307 233.212 61.6315 236.513 65.7031 236.513H216.479C220.551 236.513 223.852 233.212 223.852 229.141V142.044C223.852 137.973 220.551 134.672 216.479 134.672Z" fill="url(#paint12_linear_9_6)"/>
<path d="M212.547 139.365H69.6354C65.8614 139.365 62.8021 142.424 62.8021 146.198V224.99C62.8021 228.764 65.8614 231.823 69.6354 231.823H212.547C216.321 231.823 219.38 228.764 219.38 224.99V146.198C219.38 142.424 216.321 139.365 212.547 139.365Z" fill="white"/>
<path d="M91.5138 185.352V183.297L91.3182 182.847V179.169C91.3182 178.517 91.116 178.008 90.7116 177.643C90.3203 177.277 89.7138 177.095 88.892 177.095C88.3311 177.095 87.7768 177.186 87.2289 177.369C86.6942 177.538 86.2376 177.773 85.8594 178.073L84.7637 175.94C85.3376 175.536 86.0289 175.223 86.8376 175.001C87.6463 174.78 88.4681 174.669 89.3029 174.669C90.9073 174.669 92.153 175.047 93.0399 175.804C93.9269 176.56 94.3704 177.741 94.3704 179.345V185.352H91.5138ZM88.3051 185.508C87.4833 185.508 86.7789 185.371 86.192 185.097C85.605 184.81 85.155 184.425 84.8419 183.943C84.5289 183.46 84.3724 182.919 84.3724 182.319C84.3724 181.693 84.5224 181.145 84.8224 180.675C85.1354 180.206 85.6246 179.841 86.2898 179.58C86.955 179.306 87.8224 179.169 88.892 179.169H91.6899V180.949H89.2246C88.5072 180.949 88.0116 181.067 87.7377 181.301C87.4768 181.536 87.3463 181.83 87.3463 182.182C87.3463 182.573 87.4963 182.886 87.7964 183.121C88.1094 183.343 88.5333 183.454 89.0681 183.454C89.5768 183.454 90.0334 183.336 90.4377 183.102C90.8421 182.854 91.1356 182.495 91.3182 182.025L91.7877 183.434C91.566 184.112 91.1616 184.628 90.5747 184.98C89.9877 185.332 89.2312 185.508 88.3051 185.508ZM105.863 183.023V173.984H108.387V183.023H105.863ZM102.478 179.697V177.31H111.791V179.697H102.478ZM126.149 185.508C125.223 185.508 124.428 185.312 123.762 184.921C123.097 184.53 122.588 183.936 122.236 183.141C121.884 182.332 121.708 181.315 121.708 180.088C121.708 178.849 121.891 177.832 122.256 177.036C122.634 176.241 123.156 175.647 123.821 175.256C124.486 174.864 125.262 174.669 126.149 174.669C127.141 174.669 128.028 174.89 128.81 175.334C129.606 175.777 130.232 176.404 130.689 177.212C131.158 178.021 131.393 178.98 131.393 180.088C131.393 181.184 131.158 182.136 130.689 182.945C130.232 183.754 129.606 184.386 128.81 184.843C128.028 185.286 127.141 185.508 126.149 185.508ZM119.928 185.352V170.834H122.98V176.958L122.784 180.069L122.843 183.199V185.352H119.928ZM125.621 183.004C126.13 183.004 126.58 182.886 126.971 182.652C127.376 182.417 127.695 182.084 127.93 181.654C128.178 181.21 128.302 180.688 128.302 180.088C128.302 179.475 128.178 178.954 127.93 178.523C127.695 178.093 127.376 177.76 126.971 177.525C126.58 177.291 126.13 177.173 125.621 177.173C125.112 177.173 124.656 177.291 124.252 177.525C123.847 177.76 123.528 178.093 123.293 178.523C123.058 178.954 122.941 179.475 122.941 180.088C122.941 180.688 123.058 181.21 123.293 181.654C123.528 182.084 123.847 182.417 124.252 182.652C124.656 182.886 125.112 183.004 125.621 183.004ZM138.782 177.271V174.884H148.095V177.271H138.782ZM138.782 182.123V179.736H148.095V182.123H138.782ZM161.318 185.508C160.183 185.508 159.172 185.28 158.285 184.823C157.398 184.354 156.701 183.708 156.192 182.886C155.696 182.065 155.448 181.132 155.448 180.088C155.448 179.032 155.696 178.099 156.192 177.291C156.701 176.469 157.398 175.83 158.285 175.373C159.172 174.904 160.183 174.669 161.318 174.669C162.427 174.669 163.392 174.904 164.214 175.373C165.035 175.83 165.642 176.488 166.033 177.349L163.666 178.621C163.392 178.125 163.046 177.76 162.629 177.525C162.225 177.291 161.781 177.173 161.298 177.173C160.777 177.173 160.307 177.291 159.89 177.525C159.472 177.76 159.14 178.093 158.892 178.523C158.657 178.954 158.54 179.475 158.54 180.088C158.54 180.701 158.657 181.223 158.892 181.654C159.14 182.084 159.472 182.417 159.89 182.652C160.307 182.886 160.777 183.004 161.298 183.004C161.781 183.004 162.225 182.893 162.629 182.671C163.046 182.436 163.392 182.065 163.666 181.556L166.033 182.847C165.642 183.695 165.035 184.354 164.214 184.823C163.392 185.28 162.427 185.508 161.318 185.508Z" fill="#7D7D7D"/>
<path d="M205.648 331.576H283.828C288.708 331.576 292.664 335.297 292.664 339.888C292.664 344.479 288.708 348.201 283.828 348.201H205.648" fill="url(#paint13_linear_9_6)"/>
<path d="M288.138 332.633C289.325 334.059 289.976 335.855 289.979 337.711C289.979 342.299 286.023 346.023 281.143 346.023H205.648V348.201H283.828C288.708 348.201 292.664 344.479 292.664 339.888C292.664 336.771 290.836 334.055 288.138 332.633Z" fill="#1A5319"/>
<path d="M292.664 348.201H214.482C209.604 348.201 205.648 351.922 205.648 356.513C205.648 361.104 209.604 364.826 214.482 364.826H292.664" fill="url(#paint14_linear_9_6)"/>
<path d="M290.651 348.201V362.813H212.469C210.556 362.82 208.69 362.229 207.13 361.122C207.972 362.281 209.078 363.221 210.357 363.865C211.636 364.51 213.05 364.839 214.482 364.826H292.664V348.201H290.651Z" fill="#1A5319"/>
<path d="M208.513 228.125L209.472 227.089C210.295 226.2 211.437 225.674 212.647 225.627C213.858 225.581 215.038 226.016 215.927 226.839L219.533 230.177C220.096 230.697 220.428 231.419 220.458 232.185C220.487 232.95 220.212 233.696 219.692 234.258L216.451 237.76C215.931 238.322 215.209 238.654 214.444 238.684C213.678 238.714 212.932 238.438 212.37 237.918L208.763 234.58C207.874 233.757 207.348 232.615 207.301 231.405C207.255 230.194 207.69 229.015 208.513 228.125Z" fill="#B26C50"/>
<path d="M206.233 235.272C206.293 234.706 206.575 234.187 207.017 233.829C207.46 233.471 208.026 233.303 208.592 233.363L214.528 233.989C214.654 234.002 214.769 234.065 214.848 234.163C214.928 234.261 214.965 234.387 214.952 234.513L214.601 237.836C214.588 237.961 214.526 238.077 214.427 238.156C214.329 238.236 214.203 238.273 214.078 238.259L208.142 237.633C207.576 237.574 207.057 237.292 206.699 236.849C206.341 236.407 206.173 235.84 206.233 235.274L206.233 235.272Z" fill="#B26C50"/>
<path d="M210.203 232.786L202.839 226.292" stroke="#B26C50" stroke-width="2.83312" stroke-linecap="round" stroke-linejoin="round"/>
<mask id="mask0_9_6" style="mask-type:luminance" maskUnits="userSpaceOnUse" x="163" y="135" width="167" height="155">
<path d="M329.263 135.417H163.409V289.982H329.263V135.417Z" fill="white"/>
</mask>
<g mask="url(#mask0_9_6)">
<path d="M240.87 193.878C244.333 193.878 247.141 191.07 247.141 187.607C247.141 184.143 244.333 181.336 240.87 181.336C237.407 181.336 234.599 184.143 234.599 187.607C234.599 191.07 237.407 193.878 240.87 193.878Z" fill="#182844"/>
<path d="M240.734 192.68C244.198 192.68 247.005 189.872 247.005 186.409C247.005 182.945 244.198 180.138 240.734 180.138C237.271 180.138 234.464 182.945 234.464 186.409C234.464 189.872 237.271 192.68 240.734 192.68Z" fill="#182844"/>
<path d="M306.273 198.497C309.737 198.497 312.544 195.69 312.544 192.227C312.544 188.763 309.737 185.956 306.273 185.956C302.81 185.956 300.003 188.763 300.003 192.227C300.003 195.69 302.81 198.497 306.273 198.497Z" fill="#182844"/>
<path d="M306.273 204.771C309.737 204.771 312.544 201.963 312.544 198.5C312.544 195.037 309.737 192.229 306.273 192.229C302.81 192.229 300.003 195.037 300.003 198.5C300.003 201.963 302.81 204.771 306.273 204.771Z" fill="#182844"/>
<path d="M298.964 213.7C302.427 213.7 305.234 210.893 305.234 207.43C305.234 203.966 302.427 201.159 298.964 201.159C295.5 201.159 292.693 203.966 292.693 207.43C292.693 210.893 295.5 213.7 298.964 213.7Z" fill="#182844"/>
<path d="M246.414 211.042C249.877 211.042 252.685 208.234 252.685 204.771C252.685 201.308 249.877 198.5 246.414 198.5C242.951 198.5 240.143 201.308 240.143 204.771C240.143 208.234 242.951 211.042 246.414 211.042Z" fill="#182844"/>
<path d="M242.25 202.508C245.713 202.508 248.521 199.7 248.521 196.237C248.521 192.774 245.713 189.966 242.25 189.966C238.787 189.966 235.979 192.774 235.979 196.237C235.979 199.7 238.787 202.508 242.25 202.508Z" fill="#182844"/>
<path d="M306.273 192.758C306.273 211.156 291.357 213.7 272.958 213.7C254.56 213.7 239.646 211.156 239.646 192.758C239.724 183.973 243.268 175.575 249.507 169.391C255.746 163.207 264.175 159.737 272.96 159.737C281.744 159.737 290.174 163.207 296.413 169.391C302.652 175.575 306.196 183.973 306.273 192.758Z" fill="#182844"/>
<path d="M245.917 176.714C249.38 176.714 252.188 173.906 252.188 170.443C252.188 166.979 249.38 164.172 245.917 164.172C242.453 164.172 239.646 166.979 239.646 170.443C239.646 173.906 242.453 176.714 245.917 176.714Z" fill="#182844"/>
<path d="M253.703 173.503C257.166 173.503 259.974 170.695 259.974 167.232C259.974 163.768 257.166 160.961 253.703 160.961C250.24 160.961 247.432 163.768 247.432 167.232C247.432 170.695 250.24 173.503 253.703 173.503Z" fill="#182844"/>
<path d="M259.878 167.232C263.341 167.232 266.148 164.424 266.148 160.961C266.148 157.498 263.341 154.69 259.878 154.69C256.414 154.69 253.607 157.498 253.607 160.961C253.607 164.424 256.414 167.232 259.878 167.232Z" fill="#182844"/>
<path d="M266.148 165.716C269.612 165.716 272.419 162.909 272.419 159.445C272.419 155.982 269.612 153.174 266.148 153.174C262.685 153.174 259.878 155.982 259.878 159.445C259.878 162.909 262.685 165.716 266.148 165.716Z" fill="#182844"/>
<path d="M274.081 165.716C277.544 165.716 280.352 162.909 280.352 159.445C280.352 155.982 277.544 153.174 274.081 153.174C270.618 153.174 267.81 155.982 267.81 159.445C267.81 162.909 270.618 165.716 274.081 165.716Z" fill="#182844"/>
<path d="M282.734 167.232C286.198 167.232 289.005 164.424 289.005 160.961C289.005 157.498 286.198 154.69 282.734 154.69C279.271 154.69 276.464 157.498 276.464 160.961C276.464 164.424 279.271 167.232 282.734 167.232Z" fill="#182844"/>
<path d="M292.693 169.432C296.156 169.432 298.964 166.625 298.964 163.161C298.964 159.698 296.156 156.891 292.693 156.891C289.229 156.891 286.422 159.698 286.422 163.161C286.422 166.625 289.229 169.432 292.693 169.432Z" fill="#182844"/>
<path d="M296.352 174.638C299.815 174.638 302.622 171.83 302.622 168.367C302.622 164.904 299.815 162.096 296.352 162.096C292.888 162.096 290.081 164.904 290.081 168.367C290.081 171.83 292.888 174.638 296.352 174.638Z" fill="#182844"/>
<path d="M301.51 180.911C304.974 180.911 307.781 178.104 307.781 174.641C307.781 171.177 304.974 168.37 301.51 168.37C298.047 168.37 295.24 171.177 295.24 174.641C295.24 178.104 298.047 180.911 301.51 180.911Z" fill="#182844"/>
<path d="M302.622 185.159C306.086 185.159 308.893 182.351 308.893 178.888C308.893 175.425 306.086 172.617 302.622 172.617C299.159 172.617 296.352 175.425 296.352 178.888C296.352 182.351 299.159 185.159 302.622 185.159Z" fill="#182844"/>
<path d="M304.766 191.565C308.229 191.565 311.036 188.758 311.036 185.294C311.036 181.831 308.229 179.023 304.766 179.023C301.302 179.023 298.495 181.831 298.495 185.294C298.495 188.758 301.302 191.565 304.766 191.565Z" fill="#182844"/>
<path d="M246.766 204.328C250.066 204.328 252.742 201.652 252.742 198.352C252.742 195.051 250.066 192.375 246.766 192.375C243.465 192.375 240.789 195.051 240.789 198.352C240.789 201.652 243.465 204.328 246.766 204.328Z" fill="#B26C50"/>
<path d="M299.003 204.328C302.303 204.328 304.979 201.652 304.979 198.352C304.979 195.051 302.303 192.375 299.003 192.375C295.702 192.375 293.026 195.051 293.026 198.352C293.026 201.652 295.702 204.328 299.003 204.328Z" fill="#B26C50"/>
<path d="M272.883 224.273C288.741 224.273 301.596 211.418 301.596 195.56C301.596 179.702 288.741 166.846 272.883 166.846C257.025 166.846 244.169 179.702 244.169 195.56C244.169 211.418 257.025 224.273 272.883 224.273Z" fill="#B26C50"/>
<path d="M301.599 195.573C301.598 187.983 298.593 180.703 293.241 175.322C287.888 169.942 280.623 166.899 273.034 166.859C257.349 166.779 244.362 179.531 244.172 195.214C244.091 201.754 246.244 208.126 250.276 213.276C254.308 218.426 259.978 222.046 266.346 223.536C266.616 223.602 266.856 223.756 267.027 223.975C267.197 224.194 267.289 224.465 267.286 224.742C267.284 225.056 267.164 225.358 266.95 225.587C266.736 225.817 266.443 225.958 266.13 225.982C262.972 226.273 260.037 227.733 257.899 230.076C255.761 232.418 254.575 235.474 254.573 238.646C254.573 240.317 254.902 241.973 255.541 243.517C256.18 245.061 257.118 246.465 258.3 247.647C259.481 248.829 260.884 249.766 262.429 250.406C263.973 251.046 265.628 251.375 267.299 251.375H278.497C281.873 251.375 285.111 250.034 287.498 247.647C289.885 245.26 291.227 242.022 291.227 238.646C291.227 235.471 290.04 232.41 287.899 230.065C285.758 227.72 282.818 226.26 279.656 225.971C279.343 225.947 279.05 225.807 278.836 225.577C278.621 225.348 278.5 225.046 278.497 224.732C278.496 224.453 278.589 224.183 278.761 223.964C278.933 223.745 279.174 223.591 279.445 223.526C285.748 222.046 291.366 218.479 295.387 213.405C299.408 208.331 301.597 202.047 301.599 195.573Z" fill="#B26C50"/>
<path d="M267.898 210.747C269.484 210.747 271.526 208.208 273.073 209.755C274.62 211.302 272.797 215.771 267.898 215.771C263 215.771 260.461 211.245 262.385 209.635C264.31 208.026 265.982 210.747 267.898 210.747Z" fill="#934B3E"/>
<path d="M255.06 210.315C260.383 210.315 264.698 205.331 264.698 199.182C264.698 193.034 260.383 188.049 255.06 188.049C249.737 188.049 245.422 193.034 245.422 199.182C245.422 205.331 249.737 210.315 255.06 210.315Z" fill="white"/>
<path d="M257.969 206.411C261.425 206.411 264.227 203.175 264.227 199.182C264.227 195.19 261.425 191.953 257.969 191.953C254.513 191.953 251.711 195.19 251.711 199.182C251.711 203.175 254.513 206.411 257.969 206.411Z" fill="#182844"/>
<path d="M262.705 195.402C263.193 194.992 263.117 194.099 262.536 193.408C261.954 192.717 261.088 192.489 260.6 192.899C260.112 193.309 260.188 194.202 260.77 194.893C261.351 195.585 262.218 195.813 262.705 195.402Z" fill="white"/>
<path d="M280.727 210.315C286.05 210.315 290.365 205.331 290.365 199.182C290.365 193.034 286.05 188.049 280.727 188.049C275.404 188.049 271.089 193.034 271.089 199.182C271.089 205.331 275.404 210.315 280.727 210.315Z" fill="white"/>
<path d="M277.818 206.411C281.274 206.411 284.076 203.175 284.076 199.182C284.076 195.19 281.274 191.953 277.818 191.953C274.362 191.953 271.56 195.19 271.56 199.182C271.56 203.175 274.362 206.411 277.818 206.411Z" fill="#182844"/>
<path d="M282.556 195.402C283.044 194.992 282.967 194.099 282.386 193.408C281.805 192.717 280.938 192.489 280.45 192.899C279.963 193.309 280.039 194.202 280.62 194.893C281.202 195.584 282.068 195.812 282.556 195.402Z" fill="white"/>
<path d="M273.534 182.784C274.012 182.568 274.508 182.394 275.016 182.263C275.476 182.144 275.942 182.05 276.411 181.979C276.638 181.945 276.859 181.924 277.083 181.898C277.307 181.872 277.521 181.87 277.742 181.854C278.169 181.831 278.597 181.831 279.023 181.854C280.643 181.935 282.237 182.287 283.74 182.896C285.247 183.493 286.646 184.334 287.88 185.385C288.207 185.662 288.518 185.957 288.813 186.268C289.115 186.578 289.409 186.917 289.695 187.271C289.991 187.641 290.266 188.028 290.518 188.43C290.801 188.869 291.045 189.332 291.25 189.812L291.091 190.213C290.336 189.966 289.589 189.693 288.839 189.432L286.602 188.609C285.112 188.057 283.638 187.469 282.154 186.901C280.669 186.333 279.206 185.716 277.742 185.099L275.55 184.167C274.826 183.841 274.094 183.529 273.375 183.19L273.534 182.784ZM244.005 190.078C244.195 189.59 244.425 189.119 244.693 188.669C244.932 188.26 245.193 187.864 245.474 187.482C245.612 187.299 245.755 187.128 245.893 186.961C246.031 186.794 246.182 186.63 246.328 186.463C246.612 186.143 246.914 185.839 247.232 185.552C248.432 184.464 249.806 183.583 251.297 182.948C252.784 182.303 254.368 181.909 255.984 181.781C256.411 181.745 256.84 181.733 257.268 181.745C257.703 181.745 258.148 181.781 258.602 181.828C259.072 181.883 259.54 181.963 260.003 182.068C260.513 182.179 261.014 182.332 261.5 182.526L261.669 182.922C260.961 183.281 260.24 183.617 259.526 183.963L257.362 184.963C255.919 185.628 254.458 186.266 253.008 186.901C251.557 187.536 250.086 188.148 248.615 188.747L246.404 189.638C245.661 189.919 244.924 190.216 244.177 190.484L244.005 190.078Z" fill="#934B3E"/>
<path d="M252.125 178.74C255.588 178.74 258.396 175.932 258.396 172.469C258.396 169.005 255.588 166.198 252.125 166.198C248.662 166.198 245.854 169.005 245.854 172.469C245.854 175.932 248.662 178.74 252.125 178.74Z" fill="#182844"/>
<path d="M261.695 173.503C265.159 173.503 267.966 170.695 267.966 167.232C267.966 163.768 265.159 160.961 261.695 160.961C258.232 160.961 255.424 163.768 255.424 167.232C255.424 170.695 258.232 173.503 261.695 173.503Z" fill="#182844"/>
<path d="M273.198 174.638C276.661 174.638 279.469 171.83 279.469 168.367C279.469 164.904 276.661 162.096 273.198 162.096C269.735 162.096 266.927 164.904 266.927 168.367C266.927 171.83 269.735 174.638 273.198 174.638Z" fill="#182844"/>
<path d="M280.714 173.503C284.177 173.503 286.984 170.695 286.984 167.232C286.984 163.768 284.177 160.961 280.714 160.961C277.25 160.961 274.443 163.768 274.443 167.232C274.443 170.695 277.25 173.503 280.714 173.503Z" fill="#182844"/>
<path d="M288.99 175.706C292.453 175.706 295.26 172.898 295.26 169.435C295.26 165.972 292.453 163.164 288.99 163.164C285.526 163.164 282.719 165.972 282.719 169.435C282.719 172.898 285.526 175.706 288.99 175.706Z" fill="#182844"/>
<path d="M294.654 181.714C298.117 181.714 300.924 178.906 300.924 175.443C300.924 171.979 298.117 169.172 294.654 169.172C291.19 169.172 288.383 171.979 288.383 175.443C288.383 178.906 291.19 181.714 294.654 181.714Z" fill="#182844"/>
<path d="M300.685 189.906C304.148 189.906 306.956 187.099 306.956 183.635C306.956 180.172 304.148 177.365 300.685 177.365C297.222 177.365 294.414 180.172 294.414 183.635C294.414 187.099 297.222 189.906 300.685 189.906Z" fill="#182844"/>
<path d="M301.542 199.323C305.005 199.323 307.813 196.515 307.813 193.052C307.813 189.589 305.005 186.781 301.542 186.781C298.078 186.781 295.271 189.589 295.271 193.052C295.271 196.515 298.078 199.323 301.542 199.323Z" fill="#182844"/>
<path d="M242.622 185.013C246.086 185.013 248.893 182.205 248.893 178.742C248.893 175.279 246.086 172.471 242.622 172.471C239.159 172.471 236.352 175.279 236.352 178.742C236.352 182.205 239.159 185.013 242.622 185.013Z" fill="#182844"/>
<path d="M279.531 267.13C279.531 271.984 273.677 311.107 269.768 336.693C269.167 340.622 263.518 340.622 262.904 336.693C258.997 311.107 253.141 271.984 253.141 267.13C253.141 265.397 253.482 263.681 254.145 262.08C254.808 260.48 255.78 259.025 257.005 257.8C258.231 256.574 259.685 255.602 261.286 254.939C262.887 254.276 264.603 253.935 266.336 253.935C268.069 253.935 269.785 254.276 271.386 254.939C272.986 255.602 274.441 256.574 275.666 257.8C276.892 259.025 277.864 260.48 278.527 262.08C279.19 263.681 279.531 265.397 279.531 267.13Z" fill="#5B4C40"/>
<path d="M292.628 267.13C292.628 271.984 286.771 311.107 282.862 336.693C282.26 340.622 276.599 340.622 276 336.693C272.094 311.107 266.234 271.984 266.234 267.13C266.21 265.382 266.533 263.645 267.185 262.023C267.837 260.4 268.806 258.923 270.033 257.678C271.261 256.433 272.724 255.444 274.338 254.769C275.951 254.094 277.682 253.747 279.431 253.747C281.18 253.747 282.911 254.094 284.524 254.769C286.138 255.444 287.601 256.433 288.829 257.678C290.057 258.923 291.025 260.4 291.677 262.023C292.329 263.645 292.652 265.382 292.628 267.13Z" fill="#5B4C40"/>
<path d="M292.828 232.195L304.138 257.185L282.411 265.943" stroke="#FFDF7A" stroke-width="7.33687" stroke-linecap="round" stroke-linejoin="round"/>
<path d="M252.94 232.195L244.091 259.029L223.854 241.349" stroke="#FFDF7A" stroke-width="7.33687" stroke-linecap="round" stroke-linejoin="round"/>
<path d="M286.276 226.102H259.479C258.173 226.101 256.881 226.374 255.686 226.903C254.492 227.431 253.421 228.203 252.542 229.17C251.663 230.136 250.996 231.276 250.583 232.515C250.171 233.755 250.022 235.067 250.146 236.367L253.242 268.75H292.513L295.607 236.378C295.732 235.077 295.585 233.764 295.173 232.523C294.761 231.283 294.095 230.142 293.216 229.174C292.337 228.207 291.266 227.433 290.071 226.904C288.876 226.375 287.583 226.102 286.276 226.102Z" fill="#FFDF7A"/>
<path d="M274.019 267.176L275.438 270.361C275.598 270.721 275.685 271.109 275.695 271.502C275.705 271.896 275.638 272.287 275.497 272.655C275.355 273.022 275.143 273.358 274.872 273.643C274.601 273.929 274.276 274.158 273.916 274.318L266.875 277.454C265.727 277.966 264.422 278 263.249 277.55C262.075 277.1 261.128 276.202 260.617 275.053C260.105 273.905 260.071 272.601 260.521 271.427C260.972 270.253 261.87 269.307 263.018 268.795L270.059 265.659C270.785 265.335 271.61 265.314 272.353 265.598C273.095 265.883 273.693 266.451 274.017 267.177L274.019 267.176Z" fill="#B26C50"/>
<path d="M272.308 266.221L271.646 269.15C271.633 269.205 271.61 269.256 271.578 269.302C271.545 269.348 271.504 269.387 271.457 269.417C271.41 269.447 271.357 269.467 271.301 269.477C271.246 269.486 271.19 269.485 271.135 269.472L265.91 268.29C265.411 268.177 264.977 267.871 264.704 267.438C264.431 267.005 264.341 266.481 264.454 265.982C264.567 265.483 264.873 265.049 265.306 264.776C265.739 264.503 266.263 264.413 266.762 264.526L271.987 265.708C272.041 265.721 272.093 265.744 272.139 265.776C272.185 265.809 272.224 265.85 272.254 265.898C272.284 265.946 272.304 265.999 272.314 266.054C272.323 266.11 272.321 266.167 272.308 266.221Z" fill="#B26C50"/>
</g>
<defs>
<linearGradient id="paint0_linear_9_6" x1="126.599" y1="317.724" x2="145.99" y2="317.724" gradientUnits="userSpaceOnUse">
<stop stop-color="#F5F2B6"/>
<stop offset="1" stop-color="#69BDC9"/>
</linearGradient>
<linearGradient id="paint1_linear_9_6" x1="127.198" y1="322.766" x2="107.805" y2="322.766" gradientUnits="userSpaceOnUse">
<stop stop-color="#F5F2B6"/>
<stop offset="1" stop-color="#69BDC9"/>
</linearGradient>
<linearGradient id="paint2_linear_9_6" x1="107.888" y1="349.503" x2="145.125" y2="349.503" gradientUnits="userSpaceOnUse">
<stop stop-color="#F5F2B6"/>
<stop offset="1" stop-color="#69BDC9"/>
</linearGradient>
<linearGradient id="paint3_linear_9_6" x1="104.177" y1="328.909" x2="148.836" y2="328.909" gradientUnits="userSpaceOnUse">
<stop stop-color="#F5F2B6"/>
<stop offset="1" stop-color="#69BDC9"/>
</linearGradient>
<linearGradient id="paint4_linear_9_6" x1="145.24" y1="281.084" x2="123.658" y2="296.707" gradientUnits="userSpaceOnUse">
<stop stop-color="#F5F2B6"/>
<stop offset="1" stop-color="#69BDC9"/>
</linearGradient>
<linearGradient id="paint5_linear_9_6" x1="125.612" y1="294.349" x2="104.032" y2="278.728" gradientUnits="userSpaceOnUse">
<stop stop-color="#F5F2B6"/>
<stop offset="1" stop-color="#69BDC9"/>
</linearGradient>
<linearGradient id="paint6_linear_9_6" x1="113.185" y1="256.867" x2="139.828" y2="256.867" gradientUnits="userSpaceOnUse">
<stop stop-color="#F5F2B6"/>
<stop offset="1" stop-color="#69BDC9"/>
</linearGradient>
<linearGradient id="paint7_linear_9_6" x1="106.227" y1="281.177" x2="114.46" y2="255.838" gradientUnits="userSpaceOnUse">
<stop stop-color="#F5F2B6"/>
<stop offset="1" stop-color="#69BDC9"/>
</linearGradient>
<linearGradient id="paint8_linear_9_6" x1="138.225" y1="255.701" x2="146.458" y2="281.041" gradientUnits="userSpaceOnUse">
<stop stop-color="#F5F2B6"/>
<stop offset="1" stop-color="#69BDC9"/>
</linearGradient>
<linearGradient id="paint9_linear_9_6" x1="227.641" y1="311.971" x2="266.753" y2="311.971" gradientUnits="userSpaceOnUse">
<stop stop-color="#80AF81"/>
<stop offset="1" stop-color="#508D4E"/>
</linearGradient>
<linearGradient id="paint10_linear_9_6" x1="163.409" y1="244.654" x2="329.263" y2="244.654" gradientUnits="userSpaceOnUse">
<stop stop-color="#80AF81"/>
<stop offset="1" stop-color="#508D4E"/>
</linearGradient>
<linearGradient id="paint11_linear_9_6" x1="168.461" y1="244.654" x2="324.211" y2="244.654" gradientUnits="userSpaceOnUse">
<stop stop-color="#508D4E"/>
<stop offset="1" stop-color="#80AF81"/>
</linearGradient>
<linearGradient id="paint12_linear_9_6" x1="58.3307" y1="185.591" x2="223.854" y2="185.591" gradientUnits="userSpaceOnUse">
<stop stop-color="#1A5319"/>
<stop offset="1" stop-color="#151212"/>
</linearGradient>
<linearGradient id="paint13_linear_9_6" x1="205.648" y1="339.888" x2="292.664" y2="339.888" gradientUnits="userSpaceOnUse">
<stop stop-color="#80AF81"/>
<stop offset="1" stop-color="#508D4E"/>
</linearGradient>
<linearGradient id="paint14_linear_9_6" x1="205.646" y1="356.513" x2="292.661" y2="356.513" gradientUnits="userSpaceOnUse">
<stop stop-color="#80AF81"/>
<stop offset="1" stop-color="#508D4E"/>
</linearGradient>
</defs>
</svg>
