<svg width="32" height="32" viewBox="0 0 32 32" fill="none" xmlns="http://www.w3.org/2000/svg">
<g clip-path="url(#clip0_9_115)">
<path d="M29.3334 16C29.3334 23.3638 23.3638 29.3333 16 29.3333M29.3334 16C29.3334 8.63616 23.3638 2.66663 16 2.66663M29.3334 16H2.66669M16 29.3333C8.63622 29.3333 2.66669 23.3638 2.66669 16M16 29.3333C19.3351 25.6822 21.2304 20.9439 21.3334 16C21.2304 11.056 19.3351 6.31776 16 2.66663M16 29.3333C12.665 25.6822 10.7697 20.9439 10.6667 16C10.7697 11.056 12.665 6.31776 16 2.66663M2.66669 16C2.66669 8.63616 8.63622 2.66663 16 2.66663" stroke="#D6EFD8" stroke-width="4" stroke-linecap="round" stroke-linejoin="round"/>
</g>
<defs>
<clipPath id="clip0_9_115">
<rect width="32" height="32" fill="white"/>
</clipPath>
</defs>
</svg>
