<svg width="32" height="32" viewBox="0 0 32 32" fill="none" xmlns="http://www.w3.org/2000/svg">
<path d="M16 29.3333C15.6889 29.3333 15.4222 29.2444 15.2 29.0666C14.9778 28.8888 14.8111 28.6555 14.7 28.3666C14.2778 27.1222 13.7445 25.9555 13.1 24.8666C12.4778 23.7777 11.6 22.5 10.4667 21.0333C9.33335 19.5666 8.41113 18.1666 7.70002 16.8333C7.01113 15.5 6.66669 13.8888 6.66669 12C6.66669 9.39996 7.56669 7.19996 9.36669 5.39996C11.1889 3.57774 13.4 2.66663 16 2.66663C18.6 2.66663 20.8 3.57774 22.6 5.39996C24.4222 7.19996 25.3334 9.39996 25.3334 12C25.3334 14.0222 24.9445 15.7111 24.1667 17.0666C23.4111 18.4 22.5334 19.7222 21.5334 21.0333C20.3334 22.6333 19.4222 23.9666 18.8 25.0333C18.2 26.0777 17.7 27.1888 17.3 28.3666C17.1889 28.6777 17.0111 28.9222 16.7667 29.1C16.5445 29.2555 16.2889 29.3333 16 29.3333ZM16 15.3333C16.9334 15.3333 17.7222 15.0111 18.3667 14.3666C19.0111 13.7222 19.3334 12.9333 19.3334 12C19.3334 11.0666 19.0111 10.2777 18.3667 9.63329C17.7222 8.98885 16.9334 8.66663 16 8.66663C15.0667 8.66663 14.2778 8.98885 13.6334 9.63329C12.9889 10.2777 12.6667 11.0666 12.6667 12C12.6667 12.9333 12.9889 13.7222 13.6334 14.3666C14.2778 15.0111 15.0667 15.3333 16 15.3333Z" fill="#D6EFD8"/>
</svg>
